/* XPM */
static char *result[] = {
/* columns rows colors chars-per-pixel */
"60 60 86 1 ",
"  c #469968",
". c #469A68",
"X c #469A69",
"o c #489A6A",
"O c #489B6A",
"+ c #489B6B",
"@ c #499B6B",
"# c #499C6B",
"$ c #4A9C6B",
"% c #499C6C",
"& c #4A9C6C",
"* c #4B9C6C",
"= c #4A9D6C",
"- c #4B9D6D",
"; c #4B9D6E",
": c #4C9D6E",
"> c #4C9E6E",
", c #4D9E6F",
"< c #4D9F6F",
"1 c #4E9E70",
"2 c #4E9F70",
"3 c #4F9F70",
"4 c #4F9F71",
"5 c #4FA071",
"6 c #50A072",
"7 c #51A172",
"8 c #51A173",
"9 c #52A174",
"0 c #52A274",
"q c #53A274",
"w c #53A275",
"e c #53A375",
"r c #54A375",
"t c #54A376",
"y c #54A476",
"u c #55A476",
"i c #55A477",
"p c #56A477",
"a c #56A478",
"s c #56A578",
"d c #57A578",
"f c #57A579",
"g c #57A679",
"h c #58A679",
"j c #58A57A",
"k c #58A67A",
"l c #59A67A",
"z c #58A77A",
"x c #59A77A",
"c c #59A77B",
"v c #5AA77B",
"b c #59A77C",
"n c #5AA87B",
"m c #5AA87C",
"M c #5BA87C",
"N c #5BA87D",
"B c #5BA97D",
"V c #5CA97D",
"C c #5CA97E",
"Z c #5DA97E",
"A c #5DAA7F",
"S c #5EAA7F",
"D c #5EAA80",
"F c #5EAB80",
"G c #5FAB80",
"H c #5FAB81",
"J c #5FAC81",
"K c #60AC81",
"L c #60AC82",
"P c #60AD82",
"I c #61AD82",
"U c #61AD83",
"Y c #62AD83",
"T c #61AE83",
"R c #62AE83",
"E c #62AD84",
"W c #61AE84",
"Q c #62AE84",
"! c #62AF84",
"~ c #63AF84",
"^ c #62AE85",
"/ c #63AE85",
"( c #62AF85",
") c #63AF85",
"_ c #64AF86",
"` c #64B086",
/* pixels */
"UUUUUUUUUUUUUUUUUUUUUUUUUUUUUUUUUUUUUUUUUUUUUUUUUUUUUUUUUUUU",
"UUUUUUUUUUUUUUUUUUUUUUUUUUUUUUUUUUUUUUUUUUUUUUUUUUUUUUUUUUUU",
"UUUUUUUUUUUUUUUUUUUUUUUUUUUUUUUUUUUUUUUUUUUUUUUUUUUUUUUUUUUU",
"UUUUUUUUUUUUUUUUUUUUUUUUUUUUUUUUUUUUUUUUUUUUUUUUUUUUUUUUUUUU",
"UUUUUUUUUUUUUUUUUUUUUUUUUUUUUUUUUUUUUUUUUUUUUUUUUUUUUUUUUUUU",
"UUUUUUUUUUUUUUUUUUUUUUUUUUUUUUUUUUUUUIIPUUUUUIIPUUUUUUUUUUUU",
"UUUUUUUUUUUUUUUUUUUUUUUUUUUUUUUUUUUUQ)~)EUUUQ)~)QUUUUUUUUUUU",
"UUUUUUUUUUUUUUUUUUUUUUUUUUUUUUUUUUUQMagpAQUQNsfsAQUUUUUUUUUU",
"UUUUUUUUUUUUUUUUUUUUUUUUUUUUUUUUUUU/0.&.x/L/e.& f(PUUUUUUUUU",
"UUUUUUUUUUUUUUUUUUUUUUUUUUUUUUUUUUU/t&,&vQLQi&,&kQUUUUUUUUUU",
"UUUUUUUUUUUUUUUUUUUUUUUUUUUUUUUUUUU/0.&.n`T`y &.f(PUUUUUUUUU",
"UUUUUUUUUUUUUUUUUUUUUUUUUUUUUUUUUUUQmissfhjkdasiCQUUUUUUUUUU",
"UUUUUUUUUUUUUUUUUUUUUUUUUUUUUUUUUUUUQ)Q`r.&.x`Q)QUUUUUUUUUUU",
"UUUUUUUUUUUUUUUUUUUUUUUUUUUUUUUUUUUUUULQu&,&zQLUUUUUUUUUUUUU",
"UUUUUUUUUUUUUUUUUUUUUUUUUUUUUUUUUUUUUUP!wX&Xg/UUUUUUUUUUUUUU",
"UUUUUUUUUUUUUUUUUUUUUUUUUUUUUUUUUUUUUUUQvtitCQUUUUUUUUUUUUUU",
"UUUUUUUUUUUUUUUUUUUUUUUUUUUUUUUUUUUUUUUUQ/Q/EUUUUUUUUUUUUUUU",
"UUUUUUUUUUUUUUUUUUUUUUUUUUUUUUUUUUUUUUUUUUUUUUUUUUUUUUUUUUUU",
"Q^^^UUUUUUUUUUUUUUUUUUUUUUUUUUUUUUUUUUUUUUUUUUUUUUUUUUUUQ/Q^",
"vvcbUUUUUUUUUUUUUUUUUUUUUUUUUUUUUUUUUUUUUUUUUUUUUUUUUUUWSlvv",
"@@+#JUUUUUUUUUUUUUUUUUUUUUUUUUUUUUUUUUUUUUUUUUUUUUUUUUP!f.#@",
">>:,LUUUUUUUUUUUUUUUUUUUUUUUUUUUUUUUUUUUUUUUUUUUUUUUUUUQk&,>",
"@@@%JUUUUUUUUUUUUUUUUUUUUUUUUUUUUUUUUUUUUUUUUUUUUUUUUUPQfX&@",
"eewrLUUUUUUUUUUUUUUUUUUUUUUUUUUUUUUUUUUUUUUUUUUUUUUUUUUQB9re",
"////UUUUUUUUUUUUUUUUUUUUUUUUUUUUUUUUUUUUUUUUUUUUUUUUUUUUQ///",
"UUUUUUUUUUUUUUUUUUUUUUUUUUUUUUUUUUUUUUUUUUUUUUUUUUUUUUUUUUUU",
"UUUUUUUUUUUUUUUUUUUUUUUUUUUUUUUUUUUUUUUUUUUUUUUUUUUUUUUUUUUU",
"UUUUUUUUUUUUUUUUUUUUUUUUUUUUUUUUUUUUUUUUUUUUUUUUUUUUUUUUUUUU",
"UUUUUUUUUUUUUUUUUUUUUUUUUUUUUUUUUUUUUUUUUUUUUUUUUUUUUUUUUUUU",
"UUUUUUUUUUUUUUUUUUUUUUUUUUUUUUUUUUUUUUUUUUUUUUUUUUUUUUUUUUUU",
"UUUUUUUUUUUUUUUUUUUUUUUUUUUUUUUUUUUUUUUUUUUUUUUUUUUUUUUUUUUU",
"UUUUUUUUUUUUUUUUUUUUUUUUUUUUUUUUUUUUUUUUUUUUUUUUUUUUUUUUUUUU",
"UUUUUUUUUUUUUUUUUUUUUUUUUUUUUUUUUUUUUUUUUUUUUUUUUUUUUUUUUUUU",
"UUUUUUUUUUUUUUUUUUUUUUUUUUUUUUUUUUUUUUUUUUUUUUUUUUUUUUUUUUUU",
"UUUUUUUUUUUUUUUUUUUUUUUUUUUUUUUUUUUUUUUUUUUUUUUUUUUUUUUUUUUU",
"UUUUUUUUUUUUUUUUUUUUUUUUUUUUUUUUUUUUUUUUUUUUUUUUUUUUUUUUUUUU",
"UUUUUUUUUUUUUUUUUUUUUUUUUUUUUUUUUUUUUUUUUUUUUUUUUUUUUUUUUUUU",
"UUUUUUUUUUUUUUUUUUUUUUUUUUUUUUUUUUUUUUUUUUUUUUUUUUUUUUUUUUUU",
"UUUUQQQQUUUURQQQUUUUUUUUUUUUUUUUUUUUUUUUUUUUUUUUUUUUUUUUUUUU",
"UUUUAAAAUUUUSAAALUUUUUUUUUUUUUUUUUUUUUUUUUUUUUUUUUUUUUUUUUUU",
"UUUP>#&&HRUU,#&@FQUUUUUUUUUUUUUUUUUUUUUUUUUUUUUUUUUUUUUUUUUU",
"UUUL,--;HEIY2&-=FQUUUUUUUUUUUUUUUUUUUUUUUUUUUUUUUUUUUUUUUUUU",
"UUUL:&&&LQYQ2@&#FQUUUUUUEQQQUUUUEQQQUUUUUUUUUUUUUUUUUUUUUUUU",
"UUUP7455ZFFF8252GEUUUUUUGFFFLUUUHFFDLUUUUUUUUUUUUUUUUUUUUUUU",
"UUUUUUEQ,#=&HQUUUUUUUUUQ6O-OBQP/9O-OnQUUUUUUUUUUUUUUUUUUUUUU",
"UUUUUUUU1*:-FQUUUUUUUUUQ8&>#CQL/q$>@mQUUUUUUUUUUUUUUUUUUUUUU",
"UUUUUUUU,#&&FQUUUUUUUUUQ6O-OC/U_0O-omQUUUUUUUUUUUUUUUUUUUUUU",
"UUUUUUUU6<32HQUUUUUUUUUQw,5,mJFKe,5:NQUUUUUUUUUUUUUUUUUUUUUU",
"UUUUUUUUUUYUUUUUUUUUUUUUUYUQ8#:@NQUUUUUUUUUUUUUUUUUUUUUUUUUU",
"UUUUUUUUUUUUUUUUUUUUUUUUUUIQ8&:#NQIUUUUUUUUUUUUUUUUUUUUUUUUU",
"UUUUUUUUUUUUUUUUUUUUUUUUUUUQ8@-OMQUUUUUUUUUUUUUUUUUUUUUUUUUU",
"UUUUUUUUUUUUUUUUUUUUUUUUUUUQe:2:VQUUUUUUUUUUUUUUUUUUUUUUUUUU",
"UUUUUUUUUUUUUUUUUUUUUUUUUUUUUUUUUUUUUUUUUUUUUUUUUUUUUUUUUUUU",
"UUUUUUUUUUUUUUUUUUUUUUUUUUUUUUUUUUUUUUUUUUUUUUUUUUUUUUUUUUUU",
"UUUUUUUUUUUUUUUUUUUUUUUUUUUUUUUUUUUUUUUUUUUUUUUUUUUUUUUUUUUU",
"UUUUUUUUUUUUUUUUUUUUUUUUUUUUUUUUUUUUUUUUUUUUUUUUUUUUUUUUUUUU",
"UUUUUUUUUUUUUUUUUUUUUUUUUUUUUUUUUUUUUUUUUUUUUUUUUUUUUUUUUUUU",
"UUUUUUUUUUUUUUUUUUUUUUUUUUUUUUUUUUUUUUUUUUUUUUUUUUUUUUUUUUUU",
"UUUUUUUUUUUUUUUUUUUUUUUUUUUUUUUUUUUUUUUUUUUUUUUUUUUUUUUUUUUU",
"UUUUUUUUUUUUUUUUUUUUUUUUUUUUUUUUUUUUUUUUUUUUUUUUUUUUUUUUUUUU"
};
