/* XPM */
static char *result[] = {
/* columns rows colors chars-per-pixel */
"60 60 208 2 ",
"   c #6B6C6C",
".  c #900F00",
"X  c #AB0200",
"o  c #9C3911",
"O  c #AF2900",
"+  c #953D35",
"@  c #A93C30",
"#  c #C73B00",
"$  c #BB521A",
"%  c #984328",
"&  c #AD442C",
"*  c #AB4937",
"=  c #B64938",
"-  c #B7553F",
";  c #CB5334",
":  c #C6553E",
">  c #C96635",
",  c #E37837",
"<  c #935352",
"1  c #A85748",
"2  c #AE534E",
"3  c #BB5746",
"4  c #B86351",
"5  c #9C6E6B",
"6  c #C35541",
"7  c #C45945",
"8  c #CA5C43",
"9  c #CE5A4A",
"0  c #CC684D",
"q  c #DA6848",
"w  c #CC7455",
"e  c #D57154",
"r  c #E37B4E",
"t  c #D07973",
"y  c #2D955D",
"u  c #3F9C66",
"i  c #419966",
"p  c #469A68",
"a  c #4B9C6D",
"s  c #4E9F70",
"d  c #4EA373",
"f  c #48A675",
"g  c #4AA876",
"h  c #53A275",
"j  c #56A579",
"k  c #59A77A",
"l  c #55A97B",
"z  c #5BA97E",
"x  c #9E8438",
"c  c #AE9553",
"v  c #B6A048",
"b  c #BBA254",
"n  c #9A8A65",
"m  c #93897A",
"M  c #A59367",
"N  c #B39E63",
"B  c #A0947A",
"V  c #DC815E",
"C  c #C0A64A",
"Z  c #C6AD5A",
"A  c #D4B95F",
"S  c #DABE5E",
"D  c #DB8877",
"F  c #EE936C",
"G  c #F09669",
"H  c #E79977",
"J  c #CBB366",
"K  c #D7BD66",
"L  c #DABF64",
"P  c #D8A07F",
"I  c #DEBD78",
"U  c #DBC05F",
"Y  c #DBC166",
"T  c #DCC16C",
"R  c #DCC372",
"E  c #DEC57B",
"W  c #DEC87B",
"Q  c #E1C66E",
"!  c #E0C672",
"~  c #E3C975",
"^  c #AE788A",
"/  c #5EAC81",
"(  c #5EB084",
")  c #61AD83",
"_  c #63B086",
"`  c #66B288",
"'  c #6BB48C",
"]  c #72B791",
"[  c #79BB95",
"{  c #908789",
"}  c #998E8A",
"|  c #9B928D",
" . c #988E92",
".. c #8E9391",
"X. c #949494",
"o. c #999295",
"O. c #919995",
"+. c #9D9699",
"@. c #9D9C9B",
"#. c #AC848B",
"$. c #A29986",
"%. c #AA9198",
"&. c #A3999D",
"*. c #83BE9E",
"=. c #ADA897",
"-. c #AB8EA5",
";. c #A49BA3",
":. c #9BA7A5",
">. c #92BDA6",
",. c #9EB2AE",
"<. c #9BBBAB",
"1. c #A3A2A3",
"2. c #A6A8A6",
"3. c #A4AEA9",
"4. c #AAACAB",
"5. c #B4AAAB",
"6. c #A6B5AD",
"7. c #BBACB7",
"8. c #A7BBB3",
"9. c #BAB6BC",
"0. c #DD9982",
"q. c #D48F98",
"w. c #E39D86",
"e. c #DEB291",
"r. c #EBA78A",
"t. c #E6BA8A",
"y. c #E5A79B",
"u. c #ECB499",
"i. c #F1B59A",
"p. c #C8AAB3",
"a. c #C9A4BC",
"s. c #C7B8BC",
"d. c #E7B5AC",
"f. c #E9BDB2",
"g. c #85C09E",
"h. c #86C1A0",
"j. c #8BC2A3",
"k. c #91C2A7",
"l. c #92C4A9",
"z. c #9BC4AE",
"x. c #95C8AC",
"c. c #9DC6B1",
"v. c #A3C3B2",
"b. c #A8C4B5",
"n. c #A7CAB8",
"m. c #B1C6BB",
"M. c #A7D0B9",
"N. c #DDC585",
"B. c #DEC983",
"V. c #DFC892",
"C. c #E2C583",
"Z. c #E2CA88",
"A. c #E4C89A",
"S. c #EAD493",
"D. c #E9C9A6",
"F. c #E3CEAB",
"G. c #E6D3A4",
"H. c #E6D3AB",
"J. c #ECC5BB",
"K. c #F0CCB5",
"L. c #E9D5B5",
"P. c #EFE1A6",
"I. c #EEE1AA",
"U. c #F0E3B4",
"Y. c #CA9EC5",
"T. c #D1ACCB",
"R. c #E2B6DF",
"E. c #E3BBDE",
"W. c #E4BEE3",
"Q. c #B6CEC2",
"!. c #B7D0C7",
"~. c #BBD4C5",
"^. c #CAC6C7",
"/. c #D1C5C9",
"(. c #D5C8C9",
"). c #C3D5CA",
"_. c #D9C8D3",
"`. c #D7D6D7",
"'. c #E7C9CA",
"]. c #EAD4C2",
"[. c #E9DBCC",
"{. c #E3C3DD",
"}. c #E6CBDE",
"|. c #E8DAD7",
" X c #E5D3DD",
".X c #E9D5DE",
"XX c #EADDDE",
"oX c #F1DDDD",
"OX c #ECE0C5",
"+X c #EEE4D2",
"@X c #EEE3DE",
"#X c #E7C7E3",
"$X c #EAD5E2",
"%X c #EBDEE1",
"&X c #EDE2E2",
"*X c #E8E6E7",
"=X c #EDE3E9",
"-X c #F1E4E4",
";X c #F2EAE5",
":X c #F2E6E9",
">X c #F2EBEC",
",X c #F6F2EC",
"<X c #F3EEF1",
"1X c #F6F2F4",
"2X c #F9F5F4",
"3X c #F6F3F9",
"4X c #F9F6FB",
"5X c #FCFBFE",
/* pixels */
") ) ) ) ) ) ) ) ) ) ) ) ) ) ) ) ) ) ) ) ) ) ) ) ) ) ) ) ) / ) ) ) ) ) ) ) ) ) ) ) ) ) ) ) ) ) ) ) ) ) ) ) _ ) ) ) ) ) ) ",
") ) ) ) ) ) ) ) ) ) ) ) ) ) / ) ) ) ) ) ) ) ) ) ) ) ) ) ) ) ) ) ) ) ) ) ) ) ) ) ) ) ) ) ) ) ) ) ) ) ) ) ) z ) ) ) ) ) ) ",
") ) ) ) ) ) ) / ) ) ) / ) ) ) ) ) ) ) ) / ) ) ) ) ) ) ) ) ) ) ) ) ) ) ) ) ) ) ) ) ) ) ) ) ) ) ) ) ) ) ) ) ) ) ) ) ) ) ) ",
") ) ) ) ) ) ) ) ) ) ) ) ) ) ) ) ) ) ) ) ) ) ) ) ) ) ) ) ) ) ) ) ) ) z ) ) ) ) ) ) ) ) ) ) ) ) ) ) ) ) ) ) ) ) ) ) ) ) ) ",
") ) / ) ) ) ) ) ) ) ) ) ) ) ) ) ) ) ) ) ) ) ) ) ) ) ) ) ) ) ) ) ) ) ) ) ) ) ) ) ) ) ) ) ) ) ) ) ) ) ) z ) ) ) ) ) ) ) ) ",
") ) ) ) ) ) ) ) ) ) ) ) ) ) ) / ) ) ) ) ) ) ) ) ) ) ) ) ) ) ) ) ) ) ) ) ) ) z ) ) ) ) ) ) ) ) z ) ) ) ) ) ) ) ) ) ) ) ) ",
") ) ) ) ) ) ) ) ) ) ) ) ) ) ) ) ) ) ) ) ) ) ) ) ) ) ) ) ) ) ) ) ) ) ) ) _ _ _ _ ) ) ) ) ) ) _ ) _ ) ) ) ) ) ) ) ) ) ) z ",
") ) ) ) ) ) ) ) ) ) ) ) ) ) ) ) ) ) ) / ) ) ) ) ) ) ) ) / ) ) ) ) ) ) ) k k k h z ) ) ) z k k k z ) ) ) ) ) ) ) ) ) ) ) ",
") ) ) ) ) ) ) ) ) ) ) ) ) ) ) ) ) ) ) ) ) ) ) ) ) ) ) ) ) ) ) ) ) ) ) _ h p a p z ) ) ) h p a i k _ ) ) ) ) ) ) ) ) ) ) ",
") ) ) ) ) ) ) ) ) ) ) ) ) ) ) ) ) ) ) / ) ) ) ) ) ) ) / ) ) ) ) ) ) ) ) h p s a k ) ) ) h a s a k ) ) ) ) ) ) ) ) ) ) ) ",
") ) ) ) ) ) ) ) ) ) ) ) ) ) ) ) ) ) ) ) ) ) ) ) ) ) ) ) ) ) ) ) ) ) ) _ h p a p k ` ) ) h a a p k _ ) ) ) ) ) ) ) ) ) ) ",
") ) ) ) ) ) ) ) ) ) / ) ) ) ) ) ) ) ) ) ) ) ) ) ) ) ) ) ) ) ) ) ) ) ) _ z h k h j k k k k h k k z ) ) ) ) ) ) ) ) ) ) ) ",
") ) ) ) ) ) ) / ) ) ) ) ) ) ) ) ) ) ) ) ) ) ) ) ) ) ) ) ) ) / / ` _ z _ ) ) ) ` h p a p k ) ) ) ) ) z ) ) ) ) ) ) ) ) ) ",
") / ) ) ) ) ) ) ) ) ) ) ) ) ) ) ) ) ) ) ) ) ) ) ) ) _ / z l ` m.^.~.' z ` ) ) ) j a a a k ) ) ) ) ) ) ) ) ) ) ) ) ) ) ) ",
") ) ) ) ) ) ) ) ) ) ) ) ) ) / ) ) ) ) ) ) ) ) ) ) l l _ c.c.v.1.o.1.8.' z ) ) ) h p a p l ) ) ) ) ) ) ) ) ) ) ) ) ) ) ) ",
") ) ) ) ) ) ) ) ) ) ) ) ) ) ) ) ) ) ) ) ) ) ) / ` l.l.<.O...+.XX5X`...z.k ` ) ) k h h j z ) ) ) ) ) ) ) ) ) ) ) ) ) ) ) ",
") ) ) ) ) ) ) ) ) ) ) ) ) ) ) ) ) ) ) ) ) ) ) _ >.4.3.1.*X>X X_.4X`.O.l.l ) ) ) ) ) ) ` ) ) ) ) ) ) ) ) ) ) ) ) ) ) ) ) ",
") ) ) ) ) ) ) ) ) ) ) ) ) ) ) ) / ) ) ) / l / l.4.`.`._.:X5.5 < 5 T.-.c.` ) ) ) ) ) ) ) ) ) ) ) ) ) ) ) ) ) ) ) ) ) ) ) ",
") _ ) ) ) ) ) ) ) ) ) ) ) ) ) ) ) ) ) / ' n.n.@.*X5X5X4X^ . & 7 0 2  .4.j.z ) ) ) ) ) ) ) ) ) ) ) ) ) ) ) ) ) ) ) ) ) ) ",
"k k k k / ) ) ) ) ) / ) ) ) ) ) ) ) / ' v.;.@.Y.$X2X2X(.+ * 2 7 D 7 5 &.n.) ) ) ) ) ) ) ) ) ) ) ) ) ) ) ) ) ) ) ) k z k ",
"a a a p / ) ) ) ) ) ) ) ) ) ) ) ) l ( 8.9.1X1X4X#X=X=X^ O 1 @ : 9 t 4 o.6.j.k ` ) ) ) ) ) ) ) ) ) ) ) ) ) ) ) ) k p a p ",
"s a a s ) ) ) ) ) ) ) ) ) ) ) ) ) x.!.@.3X5X1X>X#XW.T.+ % * 9 * 7 e w ^ 1.m._ z ) ) ) ) ) ) ) ) ) ) ) ) ) ) ) ) k a a s ",
"p a a a / ) ) ) ) / ) ) ) ) / / >.:.X.-.*X1XXX}.#XW.^ o = = 3 ; 3 3 0 1 %.6.*.k ) ) ) ) ) ) ) ) ) ) ) ) ) ) ) ) j p a a ",
"h h h h ) ) ) ) ) ) ) ) ) ) ` >.4.(.XX<X#X%X{.R.E.E.< & = = : : = : 9 O =.5.v._ ) ) ) ) ) ) ) ) ) ) ) ) ) ) ) ) k h h h ",
") ) ) ) ) ) ) ) ) ) ) ) ) z ] m.5.5X5X2X$X{.W.{..X|.< = > 0 q : : 8 9 X p./.4.j.k ) ) ) ) ) ) ) ) ) ) ) ) ) ) ) ) ) _ ) ",
") ) ) ) ) ) ) ) ) ) ) ) ) k k.4.7.%X1X%X{.R.{..X%X%X#.. - 7 - r 6 9 q % s.@Xo.b./ ) ) ) ) ) ) ) ) ) ) ) ) ) ) ) ) ) ) ) ",
") ) ) ) ) ) ) ) ) ) ) ) ` g ). ._.}..X}.W.E.%X&X%X&X{.^ 1 & ; $ , r 1 a.$X:Xs.4.*./ ) ) ) ) ) ) ) ) ) ) ) ) ) ) ) ) ) ) ",
") ) ) ) ) ) _ ) ) ) ) ) ` g ).{ @X$X#X%X}.}. X$X&XXX#XT.Y.q.q.q.q.a.Y.E..X%XXX2.v./ ) ) ) ) ) ) ) / ) ) ) ) ) ) ) ) ) ) ",
") ) ) ) ) ) ) ) ) ) ) ) ) g ~.@.(.%X>X2X1X&X.X|.XXXXXX{.E.#XW.W.W.#XE. X*XXX;Xs.8.*.z / ) ) ) ) ) ) ) ) ) / ) ) ) ) ) ) ",
") ) ) ) ) ) ) ) ) ) ) ) ) / ` v.  (.=X<X1X4X4X>X;XXXXXXXXXXX}.{..X%X%XXXXX%XXXXX&.8./ _ ) ) ) ) ) ) ) ) ) ) ) ) ) ) ) ) ",
") ) ) ) ) ) ) ) ) ) ) ) ) ` h x.O./.-XV.A.[.&X4X4X1X<X-X*XXXXX*X&X@XXX&XXX@XXX:Xs.:.h.l ) ) ) ) ) ) ) ) ) ) ) ) / ) ) ) ",
") ) ) ) ) ) ) ) ) ) ) ) ) ) l x.O./.&XR L K E F.L.>X<X4X1X>X:X|.XXXXXX%XXX%X%X&X&X&.c.` ) ) ) ) / ) ) ) ) ) ) ) ) ) ) ) ",
") ) ) ) ) ) ) ) ) ) ) ) ) ) k z.O./.@XR T R I S T N.A.[.@X4X1X2X>X&X&X%X@XXX@XXX:Xs.3.g.z ) ) ) ) ) ) ) ) ) ) ) ) ) ) ) ",
") ) ) ) ) ) ) ) ) ) ) ) / ) l l.O./.;XF.t.~ ! K T T T U N.F.[.>X1X4X1X>X=XXXXXXXXXXXo.c./ / ) ) ) ) / ) ) ) ) ) ) ) ) ) ",
") / ) ) ) ) ) ) ) ) ) ) ) ) l z.X.(.<X'.0 t.A.C.B.T Y T T U I E F.[.:X3X4X4X>X*XXX&Xs.:.j.l _ ) ) ) ) ) ) ) ) ) ) ) ) ) ",
") ) ) ) / ) ) ) ) ) ) ) ) l v.:./.&X=X'.O > 0.i.t.H.G.B.R Y T R T L N.G.[.=X1X4X1X>X@X+.c._ ) ) ) ) ) ) ) ) ) ) ) ) ) / ",
") ) ) ) ) ) ) ) ) ) ) ) ` g ).{ XXXX*X].t r V H H G i.K.D.Z.~ L T R T U R R F.[.>X3X5X^.6.h.z ) ) ) ) ) ) ) ) ) ) ) ) ) ",
") ) ) ) ) ) ) ) ) ) ) ) ) g ).o.|.:X|.R R t.e.0.y.F H r.J.2X;XOXW E T T T T T U V.A.+X>X+.).g ` ) ) ) ) ) ) ) ) ) ) ) ) ",
") ) ) ) ) ) ) ) ) ) ) ) ) ) ] ,.2.|.@XZ.Y R W N.D.A.J.'.oX5X4X4X,Xy.E B.T R K R T S C.I.} ).g ) ) ) ) / ) ) ) ) ) ) ) ) ",
") ) ) ) / / / / ) ) ) ) z / l ' <.| 7.J Y W T T T C.S.H.>X2X4X4X4Xt w 0.A.C.N.W L T C.I.} ).g ` ) ) ) ) ) ) ) ) ) ) ) ) ",
") ) ) ) a a a a ) ) ) ) s a a i ' v.3.@.M x A Y ! ! K R R S.OX;X3Xt # e w.r.i.D.G.N.~ P.} ).g ` ) ) ) ) ) ) ) ) ) ) ) ) ",
") ) ) ) s a a a ) ) ) ) s a a a z / j.M.8.8.| B b C R ~ R Y S W G.t.P H r w.F G i.D.L.U.} ).d ` ) ) ) ) ) ) ) ) ) ) ) ) ",
") ) ) ) a a a a / ) ) ) s a a a z ) l d ' [ c.!.3.&.M c K K ~ ! K R W V.t.u.f.r.d.d.:X<X .).g ` ) ) ) ) / ) ) ) ) ) ) ) ",
") ) ) z h s s h z z ) z s s s s ) ) ) ` / / / l j.x.8.8.$.B b Z ! T R T T V.Z.H.].oX4X3Xo.).d ` ) ) ) ) ) ) ) ) ) ) ) ) ",
") ) ) ) ) ) ) ) s a a a ) ) ) ) ) ) ) ) ) ) ) ` i y h z n.Q.:.@.M N K Y ~ R T R Q H.OX+X .).g ) ) ) ) ) ) ) ) ) ) ) ) ) ",
") ) ) ) ) ) ) ) s a a a z ) ) ) ) ) ) ) ) ) ) ) h s p a g z h.l.b.,.{ B b Z ! Q ~ U Q P.} ).g ` ) ) ) ) ) ) ) ) ) ) ) ) ",
") z ) ) ) ) ) ) a a a a ) ) ) ) ) ) ) ) ) ) ) ) h p a a z ` z ) k ) x.<.:.O.n N A K S.P.$.).g ` ) / ) ) ) ) ) ) ) ) ) ) ",
") ) ) ) ) ) ) ) s a s s ) ) ) ) ) ) ) ) ) ) ) ) h a h a z z ) ) h a u d g.l.m.,.m n v =.6.] ) ) ) ) ) ) ) ) ) ) ) ) / ) ",
") ) ) ) ) ) ) ) ) ) ) ) ) ) ) ) ) ) ) ) ) ) ) ) ) ) ) ) h p s p k ) ) ) k ) ' *.M.8.9.b.] / ) ) ) ) ) ) ) ) ) ) ) ) ) ) ",
") ) ) ) ) ) ) ) ) ) ) ) ) ) ) ) ) ) ) ) ) ) ) ) ) ) ) ) h p a a z ) ) ) ) ) / z g ] M.[ k ) ) ) ) ) ) ) ) ) ) ) ) ) ) / ",
") ) ) ) ) ) ) ) ) ) ) ) ) ) ) ) ) ) ) ) ) ) ) ) ) ) ) ) h p a p z ) ) ) ) ) ) ) ) / f k ) ) ) ) ) ) ) ) ) ) ) ) ) ) ) ) ",
") ) ) ) ) ) ) ) ) ) ) ) ) ) ) ) z ) ) ) ) ) ) ) ) ) ) ) h a h a z ) ) ) ) ) ) ) ) ) ) ) ) ) ) ) ) ) ) ) ) ) ) ) ) ) ) ) ",
") ) ) ) ) ) ) ) ) ) ) ) ) ) ) ) ) ) ) ) ) ) ) ) ) ) ) ) ) ) ) ) ) ) ) ) ) ) ) ) ) ) ) ) ) ) / ) ) / ) ) ) ) ) ) ) ) ) ) ",
") ) ) ) ) ) ) ) ) ) ) ) ) ) ) ) ) / ) ) ) ) ) ) ) ) ) ) ) ) ) ) ) ) ) ) ) ) ) ) ) ) ) ) ) ) ) ) ) ) ) ) ) ) ) ) ) ) ) ) ",
") ) ) ) ) ) ) ) ) ) ) ) ) ) z ) ) ) ) ) ) ) ) ) ) ) ) ) ) ) ) ) ) ) ) ) ) ) ) ) ) ) ) ) ) ) ) ) ) ) ) ) ) ) ) ) ) ) / ) ",
") ) ) ) ) ) ) ) ) ) ) ) ) ) ) ) ) ) ) ) ) ) ) ) ) ) ) ) ) / ) ) ) ) ) ) ) ) ) ) ) ) ) ) ) ) ) ) ) ) ) ) ) ) ) ) ) ) ) ) ",
"z ) ) ) ) ) ) ) ) ) ) ) ) ) ) ) ) ) ) ) ) ) ) ) ) ) ) ) ) ) ) ) ) ) ) ) ) ) ) ) ) ) ) ) ) ) ) ) ) ) ) ) ) ) ) ) ) ) ) ) ",
") ) ) ) ) ) ) ) ) ) ) ) ) ) ) ) ) ) ) ) ) ) ) ) ) ) ) ) ) ) ) ) ) ) ) ) ) ) ) ) ) ) ) ) ) ) ) ) ) ) ) ) ) ) ) ) ) ) ) ) ",
") ) ) ) ) ) ) ) ) ) ) ) ) ) ) ) ) ) ) ) ) ) ) ) ) ) ) ) ) ) / ) ) / ) ) ) ) ) ) ) ) ) ) ) ) ) ) ) ) ) ) ) ) ) ) ) ) ) ) ",
") ) ) ) ) ) ) ) ) ) ) ) ) ) ) ) ) ) ) ) / ) ) ) ) ) ) ) ) ) ) ) ) ) ) ) ) ) ) ) ) ) ) / ) ) ) ) ) ) ) ) / ) ) ) ) ) ) ) "
};
