/* XPM */
static char *result[] = {
/* columns rows colors chars-per-pixel */
"60 60 249 2 ",
"   c #090A11",
".  c #261D1B",
"X  c #030124",
"o  c #15132C",
"O  c #1A0035",
"+  c #271033",
"@  c #17282F",
"#  c #222C2C",
"$  c #282735",
"%  c #322B3A",
"&  c #2B373A",
"*  c #353A37",
"=  c #32353A",
"-  c #343B3A",
";  c #620F18",
":  c #4B062F",
">  c #721033",
",  c #4F2E33",
"<  c #792729",
"1  c #772836",
"2  c #703333",
"3  c #194B35",
"4  c #384437",
"5  c #3A453A",
"6  c #3D4B3A",
"7  c #2C5135",
"8  c #385739",
"9  c #396738",
"0  c #414D38",
"q  c #4F5231",
"w  c #485937",
"e  c #43533A",
"r  c #455B3B",
"t  c #734F37",
"y  c #4C6336",
"u  c #496736",
"i  c #4B633C",
"p  c #4D6B3D",
"a  c #536A36",
"s  c #556738",
"d  c #536C3C",
"f  c #487639",
"g  c #537A36",
"h  c #55733D",
"j  c #5A753D",
"k  c #557B3D",
"l  c #5C7C3C",
"z  c #67673A",
"x  c #64793A",
"c  c #77703C",
"v  c #321340",
"b  c #373544",
"n  c #701349",
"m  c #55334B",
"M  c #682B46",
"N  c #792A48",
"B  c #66344E",
"V  c #79354A",
"C  c #384443",
"Z  c #35554F",
"A  c #264A5A",
"S  c #396958",
"D  c #367564",
"F  c #4D4D52",
"G  c #6B524B",
"H  c #496647",
"J  c #516A4D",
"K  c #597942",
"L  c #45755A",
"P  c #6F7145",
"I  c #5A5B63",
"U  c #5F6069",
"Y  c #467964",
"T  c #65676D",
"R  c #6B6C74",
"E  c #6E7277",
"W  c #73777D",
"Q  c #910D34",
"!  c #882B2C",
"~  c #94322D",
"^  c #882B35",
"/  c #992735",
"(  c #893537",
")  c #943A35",
"_  c #9C3B36",
"`  c #983838",
"'  c #A32537",
"]  c #A33637",
"[  c #A33D35",
"{  c #854839",
"}  c #915139",
"|  c #A3433B",
" . c #8D6D3C",
".. c #96673A",
"X. c #8A773C",
"o. c #A26639",
"O. c #8F0C46",
"+. c #8B2942",
"@. c #863544",
"#. c #963C43",
"$. c #A83A47",
"%. c #B03650",
"&. c #C0395D",
"*. c #CD3A67",
"=. c #9A4245",
"-. c #994547",
";. c #8C554A",
":. c #A74547",
">. c #AD4A4B",
",. c #B14B4E",
"<. c #A84951",
"1. c #AC4D53",
"2. c #B64B55",
"3. c #AA5554",
"4. c #B45255",
"5. c #BA5356",
"6. c #B55359",
"7. c #BC555C",
"8. c #BD595D",
"9. c #897748",
"0. c #986F50",
"q. c #A86D56",
"w. c #B7665C",
"e. c #BE5A61",
"r. c #BB6863",
"t. c #BA7161",
"y. c #C1555D",
"u. c #C1595F",
"i. c #CB4B65",
"p. c #D04F69",
"a. c #CA5765",
"s. c #C45D63",
"d. c #CA5D65",
"f. c #D1596A",
"g. c #CA6166",
"h. c #C56864",
"j. c #CD6269",
"k. c #D2636B",
"l. c #D2696D",
"z. c #C37563",
"x. c #46833F",
"c. c #5B853D",
"v. c #59933C",
"b. c #63843D",
"n. c #648B3E",
"m. c #72853D",
"M. c #66943D",
"N. c #5DA23C",
"B. c #6AA63C",
"V. c #3C896C",
"C. c #5C8341",
"Z. c #5A8942",
"A. c #598C4F",
"S. c #618340",
"D. c #648C41",
"F. c #698D41",
"G. c #678A49",
"H. c #7A8744",
"J. c #649342",
"K. c #6C9442",
"L. c #669D46",
"P. c #6C9A43",
"I. c #729C44",
"U. c #769948",
"Y. c #709A53",
"T. c #69A643",
"R. c #6DA344",
"E. c #73A445",
"W. c #75AB46",
"Q. c #7AAE46",
"!. c #79A549",
"~. c #73AF49",
"^. c #77B647",
"/. c #7AB346",
"(. c #7BB448",
"). c #7DBB49",
"_. c #498669",
"`. c #54896B",
"'. c #538E6F",
"]. c #459669",
"[. c #4A9C6C",
"{. c #4C9673",
"}. c #569978",
"|. c #58A77A",
" X c #5BA47D",
".X c #61AA7E",
"XX c #7DC24A",
"oX c #8E823C",
"OX c #86C03D",
"+X c #899745",
"@X c #979353",
"#X c #A88458",
"$X c #B4875C",
"%X c #A99659",
"&X c #84AA4C",
"*X c #96A94F",
"=X c #85B54A",
"-X c #81BC4A",
";X c #84AD53",
":X c #84B252",
">X c #88B855",
",X c #8CBB55",
"<X c #95B857",
"1X c #A9A85B",
"2X c #BB9063",
"3X c #BAA265",
"4X c #B8B866",
"5X c #C28666",
"6X c #C2B16A",
"7X c #83C24B",
"8X c #88C74D",
"9X c #8CC754",
"0X c #93C45A",
"qX c #95C859",
"wX c #9ACC5D",
"eX c #8FD657",
"rX c #97D45C",
"tX c #A1DB5F",
"yX c #9ED460",
"uX c #A4DC63",
"iX c #A4D964",
"pX c #B6D96A",
"aX c #A7E266",
"sX c #ACE569",
"dX c #AEEA6A",
"fX c #B2EA6C",
"gX c #B3F16C",
"hX c #485E86",
"jX c #7A7B83",
"kX c #7A7C84",
"lX c #817F8A",
"zX c #599399",
"xX c #7F8289",
"cX c #7C8C8A",
"vX c #6C9E86",
"bX c #769689",
"nX c #5DA781",
"mX c #5FAD82",
"MX c #5CB084",
"NX c #68A585",
"BX c #61AD83",
"VX c #64B186",
"CX c #68B687",
"ZX c #73B495",
"AX c #808387",
"SX c #82848B",
"DX c #838A8D",
"FX c #848B90",
"GX c #BAD0DE",
/* pixels */
"BXBXBXBXBXBXBXBXBXBXBXBXBXBXBXBXBXBXBXBXBXBXBXnXBXBXMXBXBX_.V.V.V._.}.VXBXVXBXBXBXBXBXBXBXBXBXBXBXBXBXVXmXBXBXmXBXBXBXVX",
"BXBXBXBXBXBXBXBXBXBXBXBXBXBXBXBXBXBXBXBXBXmXVXVXVXVXMXVX}.G n : : ; L  XBX.XBXBXBXBXBXBXBXBXBXBXBXBXBXBXBXBXBXBXmXVX X.X",
"BXBXBXBXBXBXBXBXBXBXBXBXBXBXBXBXBXBXBXmXmXBX'.'.'.{.mX{.G d.s._ :.4.^ L  XBXBXBXBXmXBXBXBXBXBXBXBXBXBXBXBXBXBXBXBXBXBXBX",
"BXBXBXBXBXBXBXBXBXBXBXBXBXBXBXBXBXmXVXVXmX'.- 8 4 + _.m s.j.-.1 1.j.4.: S BXVXVXVXVX XBXBXBXBXBXBXBXBXBXBXBXBXBXBXBXBXBX",
"BXBXBXBXBXBXBXBXBXBXBXBXBXBXVXVXBXVX.X}.'.r i XX~.p G d.u.:.5.s.=.1.k.1.1 L }.}.}.NXZXBXBXBXBXBXBXBXBXBXBXBXBXBXBXBXBXBX",
"BXBXBXBXBXBXBXBXBXBXBXBXBX X XBXmXnX'.+ c.^.i -X).-Xh.a.| d.=.~ ! 5.g.j.2., & %   FXGX}. XBXBXmXBXBXBXBXBXBXBXBXBXBXBXBX",
"BXBXBXBXBXBXBXBXVXBXBXVXL 6 J '.'.H Y.rX).-XK F.(.-Xz.$.) 8.:.! 5.>.,.k.,.z J.K.j m G I NXNXmXVXBXBXBXBXBXBXBXBXBXBXBXBX",
"BXBXBXBXBXBXBXBXBXBXBXVXA !.gX;X!.gX<Xa 8XsXqX= K.-Xt.d.g.@.< 8.j.:.,.k.%., Z.!.Q | s.d.z.r.K Y |.VXBXBXBXBXBXBXBXBXBXBX",
"BXBXBXVXBXBXBXBXBXBXmXBXZ ~.dXuX>X>X<X* K K n.W.K.P.} s.g.s.e.=.` 7.d.g.q.-X<X-.d.5.:.s.d.d.a., {.VXBXBXBXBXBXBXBXBXBXBX",
"BXBXmXmXBXBXBXBXBXBXVXY d W.rXgX0Xi !.uXiXwX* l /.F.x 1 e.k.>.5.d.d.f.%XeX<X=.d.g.j.8.( | s.f.e.`.CXBXBXBXBXBXBXBXBXBXBX",
"BXBXBXBXBXBXBXBXBXY Z & M.^.X.9. .t ;XsXsXiXG.b.E.yXyXyX0.$.5.d.d.d.q.x 9X4X%.j.e.( =.e.8.>.g.a.T BXBXBXBXBXBXBXBXBXBXBX",
"BXBXBXBXBXBXBXmXS d c.x ^.@Xi.5.i.-.0.5XL.U.D.K.iXdXsX9XM.wXpX&XP z s x J.#Xp.) -.5.! <.d.[ g.s.~ }.BXBXBXBXBXBXBXBXBXBX",
"BXBXBXBXBXBXVXY a ,XwXwX1Xh.d.k.g.s.$.<.3.f 9XK.9X9X9XK.0XdX0XW.c.u y M.^.#Xi.:.$.8.< ) #.8.s.s.! F MXVXBXBXBXBXBXBXBXBX",
"BXBXBXBXBXmXZ k /.iXsXpXd.f.4._ 6.l.g.1.>.r.2XD.M.n.K.yXsX&XW.-X=Xl c.rXuXiX4Xp.7.:.s.5.< d.j.-., M.H zXBXVXBXBXmXVXBXBX",
"BXBXBXBXBXmX`.K K.,XeX2Xp.w.2.5.1.#.6.s.>.j.9.W.0X0X0X>X-Xv.N.R.R.n.D.yXfXdXpXi.h.>.-.<.7.s.-.<.d C.M.hXA }.VXNXmXBXBXBX",
"BXBXBXBXBXBXCXA B.E.v.q.f.:.4.d.( #.3.) $.z.7XuXsXdXaXyX#Xt.t.w.w.;XN.H.(.Q.U.q.f.h.1.) ,.$.%.4XuXr rXOX. A.CXVXBXBXBXBX",
"BXBXBXBXBXBXY A.J.E.8X2X2.1.1.=.< >.4.< y.z.&XrXsXsXpX6Xz.%.y.g.f.$X<XqX!.U.9X*Xw.p.p.%.%.r.6XfX;X;X;X9X8 u L D .XBXBXBX",
"BXBXBX.XVX`.M.D.w h ).#X%.s.=.( y.,.>.4.k.h.n.R.:X:X3X+.>.5.) ~ 8.p.z.pXwXqXfXW.~.4X4X4X0.0.L.Y.Z.!.P.c.J.F.M.K }.VXBXBX",
"BXVX.XVXVX_.P.H 0 4 Q.X.&.l.1.<.8.,.4.k.s.0.:XD.n.,X3.#.r.7.<.-.>.h.*.1X).Y.,X(.yXaXsXyX).9 G.$ 7X8 J.Z.(.8X-XG.}.CXVXBX",
"|. X|.}..X_.X a a :XtX<X;.u.l.4.) 8.f.g.@XqXiXK.<X<Xq.d.d.< >.6.1.4.s.$X*X0X(.:XyXsXdXsX<X0XfX,XC.J.% P.Q.Q.x J |. X X|.",
"[.[.S % + v 6 w b.0XQ.W.x / i.8.2.f.t.0.D.uXwXK.wX< a.g.8.:.( < 7.:.| *.6XgXiX!.).rXqX0XK.sXfX0XH (.i w j d * Y |.].[.[.",
"[.[.- j c.k e n.E.D.;X,X,X=X0.$X$X@XN.P.U.K.0XE.I.1 e.j.$.s.5.! =.<.-.i.3XeXtX,XH >X:Xp K :X,XY.8XE.i K c.c.0 Y mX[.[.[.",
"[.V.C ).7X).p R.8XE.0XaXaXaX>Xv.XXeX9XrX0Xc.K./.m.X.s.d.>.5.8.-.( 8.l.i.q.~./.Z.K.fX0X5 5 $ * qX/.p J.).7X8Xc._.|.[.[.[.",
"|.[.b c././.).i n.7X:XW.W.W.E.l &XyXwX0XK.;XF.F.>XsX3Xd.g.>.| 5.d.g.s.} x P.I.T.-X9Xp u !.E.E.w $ h Q.).-X7XB.A.{.|.[.|.",
"MX|.Z - S.K S.e K wXfX>XS.F.M.K.n.n.K.F.&XaXU.K.uXuXuXt.d.j.k.$.%.i.$.b.P.R.8X+Xc ,X!.P ^.-X7XR.5 H j E.W.^.w S BXVXBXBX",
"mXVXnX4 p p p r 0XuXsX9X!.:X9X:XF.P.rXiXE.-XwXK.).XX/.d 3.r.8.5X$X9.c W./.F.0.s.8.s.d.8.G R.W.E.= 0XY.6 r p p 4 Y |.BXBX",
"BXBX}.p ).-X-XE.@ ,XfX;XwXdXaXrXE.M.eXsXwXJ.(.J./.).K.u u u n.yXdXdX;XJ./.q.7._ _ $.s.j.s.m - % 0 W.aXG.R.7X7XJ.O L VXmX",
"VX XS E.-X-X-X(.z 3.j.w.g.q.P.E.K.!.).9XwXK.(.H.{ { H.z s y ,XsXuXsXuX(.0.>.-.g.6.( =.s.g.w.K K iX,Xr P.).).).).d S VXBX",
"BXBX XH ).(.).P.r.$.] _ y.p.*X^.-XQ.P.9XwXJ.*Xf.s.s.=.s.P n.n.yXsXsX,XF.x $.l.1.( g.8.:.g.e.q yXsX8X8 K F.W.7XQ.w L VXmX",
"BXBX|.6 y i 8 w.=.4.d.=.4.j.d.%XQ.n.j g 9.z.t.s.>.s.8.s.:.=XI.I.U.!.!.z -.s.j.1.^ | #.7.:.s.s.H.-X-X).k 5 S.I.K _. XBXBX",
"VX XC /./.Q.2 y.g.g.=.! u.5.4.f.%XXXI.7 ;.k.y.:.8.^ ( g.:./.7XK.K wXsX+XO.l.5.,.7.< :.8.< [ j.&X7 E.8Xp P.7Xu D VXVXVXMX",
"}.L B.).-X=Xt 8.j.,.5.=.7.1.) 2.#XB.m.v.9.j.8.< #.) 4.#.| =XD.x ,XuXfX@X' l.5.>.j.1.! =.8.u.g.P R.K r P.-X-X(.K {.VX.X.X",
"}.0 !.(.).d > 7.j.| u.j.=.-.s.j.;.@ b 9 <Xa.>.8.~ < s.1 4.pXD.d =X8X8XR.0.f.j.5.~ -.s.s.g.s.( P H E.6 S.I.K.L.a _.VXmXmX",
"BX_.q P.K P.I.r.f.u.,.=.>.e.k.2.X.W.Z.8 +X,.e.d.8.6.>.5.g.<X~.K.K.P.P.h F.$Xf.u.7.4.>.g.s.-.E.P.$ J.r q } ....2 _.CXmXBX",
"BXBX}.5 S.).XX*Xh.f.8.6.g.l.2.t M.&XC.$ , Q h.h.=.:.8.g.a.,XW.E.9XiXuXU.M.W.-.j.k.d.5.$.} Q.XXK.C.r 2 ~ ] N +.[ m V.VXBX",
"VX X_.Z.d R.W.W.9.s.k.k.5.4.1 0 H e r l U.oX1.i._ 2.a.k.%Xc.P.qXuXsXsXiX,Xx.z ..0.0.#Xc : J.-XI.J.t ^ _ @.V ( _ / G {.VX",
"VX}.O B.b.w 6 w 7 P ;.9.t : y D.E.J.K.-X7X).!.*Xt @X*XV P.R.E.9XuXdXsXqX0X&X6 9 g N.3 H L.$ K e 6 2 [ [ m M ~ ~ _ ! D MX",
"VX XY y j j h 6 x g v.B.Z 7 T.(.7X(.P.(.).7X).v.8 Z.^.D.K W.S.J.>X0X0XU.U.-Xc.x Q.).c.P.7XF.O C.h t _ ) V ( @.N [ > D CX",
"BXBXVXY O H d = w 8  . .2 { X.&XXX(.K r Z.k p O 0 F.E.7Xi S.r e e d M.^.U.o.X.z Z.J.8X7X^.J.R.W.p , / ) ~ V V ` Q J |..X",
"BXBXBXBXL + K Z.Z.t n n 2 N Q o.U.P.K.p = l K l - K F.-Xr S.i 6 h T.&X+XX.Q ' 1 + d L.)./.w K.K h c. .| / N ] o., S CX.X",
"BXBXVX.X_.J.Q.(.^.P N V V @.V #.Q f (.D.R.8XXX-Xc.= F.E.J.E.S.P.-X&X..O.n ( | / ..U.r P.).d O D.7X/.Z.z } { > q L }.VXBX",
"BX.XVX_.& P.j d d G ` | ] ~ B V t m.c.& ).~.XXXX/.5 K P.).8XW.).=X} ' V m V ` ' ..-XK.i -Xa - Q.(.K.a y f # A S }.VXmXBX",
"BXBX.XL + O C.C.K } ] _ N m ` ( N ) 9 G.c X.+XoXd = w ).).E.l Z.../ B @.( B V +.{ L.v.y K.y e d h j w a q H  XVX.XBXBXBX",
"BXBX.X.XZ S T.(.XXX.' ( M M ( @./ Q Z.+XQ / ' ' , & y W.W.y e 9 { ! M @.V V N V | @ 0 l - a y = 5 * = 6 Z [.VXBXBXBXBXBX",
"BXBXBXBXBXBXI d c.t ] ~ ^ V m N .. .1 +.( ( V [ | 2 c.k w d W.7XoX! ^ V @.#.V ~ { a j L.w e - y E.i $ F  XVXmXBXBXBXBXBX",
"BXBXBXBX.XBXcXI O & { [ N M / Q M.=XO.B _ @.V _ _ | =XP.e ^.8X).R. .;.+./ ` / V b y a = r 6 - F.-Xd X W VX XBXBXBXBXBXBX",
"BXBXBXBXBXBXDXW H n.k t ) } } z c.P N | ( B ^ ^ ( ) +XR.r L.Q.F.d L.+XM F F F J r K n.d ).D.- K -XH X jXNXVXBXBXBXBXBXBX",
"BXBXBXBXBXBXbXF B.).l y 4 p /.7XW.c ] ` ! ` B #.B < | -Xh % = O L.K O K U.n.!.L.i ).K p ).F.= 6 (.s O `.NXBXBXBXBXBXBXBX",
"BXBXBXBXBX XbXI C F w w * a F.E.W.c ] ` ( ` @.B ` _ } (.Q.a g 0 6 % Z.7XW.i l F.r (.K p -XS.- - H F jXFXBXBXBXBXBXBXBXBX",
"BXBXBXBXBXVXvXSXlXlXF @ $ $ h Q.Z.> | ] ) 1 B _ [ [ { =Xb.w W.b.y * D.8X/.p 6 e p ^.b.d (.6 $ % jXkXSXcXBXBXBXBXBXBXBXBX",
"BXBXBXBXBXBXBXcXSXSXjXkXF + K P.K @ t [ _ ) ` ` ) 1 s j g W.-X(.n.% n.).Q.p 4 a e c.E.4 r b = jXxXxXSXvXmXBXBXBXBXBXBXBX",
"BXBXBXBXBXBXBXvXSXAXDXDXSXI # 4 4 & 0 s s z s s , * 5 y W.-X).7XM.y 0 b.l 0 y - 6 y 6 = $ kXkXDXxXDXDXBXBXBXBXBXBXBXBXBX",
"BXBXBXBXBXBXBXBXbXDXxXAXDXAXF o $ $ 0 g y a u a w - - 5 l ^.7XK y 0 e e w w 5 - - 5 - * = AXDXAXSXcXNXBXBXBXBXBXBXBXBXBX",
"BXBXBXBXBXBXBXBXmXbXlXAXlXDXAXjXW xXU . s - 6 a a a y y 4 e r w 0 = w a e - - - * o X C kXlXAXSXcXNXMXBXBXBXBXBXBXBXBXBX",
"BXBXBXBXBXBXBXBXBXBXbXSXAXxXSXSXDXSXlXT # @ 5 0 6 6 a a 6 % 0 a e - 0 e 5 = - @ b W R jXSXSXAXcXNXmXBXBXBXBXBXBXBXBXBXBX",
"BXBXBXBXBXBXBXBXBXmXmXbXDXSXSXAXSXAXSXSXW E o X - - 5 6 # X 4 6 5 # X $ - - # F kXSXDXSXSXSXcXNXmXBXBXBXBXBXBXBXmXmXVXBX",
"BXBXBXBXBXBXBXBXBXBXBXBXNXvXDXSXSXAXSXSXFXSXR T $ # = o U E m @ @ I E F o o 5 W DXSXSXSXcXNXNXmXBXBXBXBXBXBXBXBXBXBXBXBX",
"BXBXBXBXBXBXBXBXBXBXBXBXBXmXBXbXSXSXAXAXAXAXDXSXE R - R SXFXjX@ F SXDXjXE R W DXSXSXDXNXBXVX.XBXBXBXBXBXBXBXBXBXBXBXBXBX",
"BXBXBXBXBXBXBXBXBXBXBXBXBXBXBXmXNXbXDXDXSXSXlXlXSXDXR SXSXkXDXR jXDXlXlXDXSXFXxXcXNXNX XBXBXBXBXBXBXBXBXBXBXBXBXBXBXBXBX",
"BXBXBXBXBXBXBXBXBXBXBXBXBXBXBXVXmXBXNXvXvXvXvXbXcXcXDXAXAXDXAXDXcXcXcXbXvXvXvXvXBX.XMXVXBXBXBXBXBXBXBXBXBXBXBXBXBXBXBXBX"
};
