/* XPM */
static char *result[] = {
/* columns rows colors chars-per-pixel */
"60 60 242 2 ",
"   c #000000",
".  c #01000D",
"X  c #1C0205",
"o  c #000013",
"O  c #00001C",
"+  c #06061D",
"@  c #110616",
"#  c #290710",
"$  c #00281E",
"%  c #010023",
"&  c #050327",
"*  c #160327",
"=  c #021929",
"-  c #061631",
";  c #181C32",
":  c #270329",
">  c #33022A",
",  c #2C1D32",
"<  c #02272A",
"1  c #002834",
"2  c #0D2E30",
"3  c #192533",
"4  c #38282B",
"5  c #292435",
"6  c #38263B",
"7  c #2B3339",
"8  c #373339",
"9  c #4D000D",
"0  c #4B142F",
"q  c #701125",
"w  c #482429",
"e  c #522B2B",
"r  c #5C292B",
"t  c #55302F",
"y  c #452B37",
"u  c #4C3137",
"i  c #543434",
"p  c #583837",
"a  c #5D3934",
"s  c #6D302F",
"d  c #63243A",
"f  c #623C33",
"g  c #643C39",
"h  c #7A3236",
"j  c #04423E",
"k  c #31423D",
"l  c #47473F",
"z  c #7F4729",
"x  c #65433C",
"c  c #6B4438",
"v  c #6B453A",
"b  c #754B3A",
"n  c #774B3A",
"m  c #7E513D",
"M  c #083445",
"N  c #3B3743",
"B  c #533946",
"V  c #6F394B",
"C  c #773845",
"Z  c #184947",
"A  c #1B5148",
"S  c #304846",
"D  c #394844",
"F  c #245349",
"G  c #2E6954",
"H  c #396955",
"J  c #3B7658",
"K  c #3C5F61",
"L  c #56494A",
"P  c #4B5351",
"I  c #744E42",
"U  c #6C514E",
"Y  c #785647",
"T  c #715856",
"R  c #436B5B",
"E  c #506D5A",
"W  c #736557",
"Q  c #4E5A65",
"!  c #487864",
"~  c #5B716C",
"^  c #6A6E72",
"/  c #787474",
"(  c #8B0000",
")  c #910000",
"_  c #872B2D",
"`  c #97332B",
"'  c #873737",
"]  c #9D3B34",
"[  c #A63D37",
"{  c #AF3638",
"}  c #89472F",
"|  c #83553E",
" . c #88573D",
".. c #AB423C",
"X. c #943E45",
"o. c #99464B",
"O. c #845640",
"+. c #855947",
"@. c #8A5B42",
"#. c #8C4950",
"$. c #984A52",
"%. c #A64749",
"&. c #AE4D4F",
"*. c #B64F51",
"=. c #AC555A",
"-. c #BB5558",
";. c #8B6248",
":. c #966647",
">. c #896958",
",. c #936B53",
"<. c #87715C",
"1. c #98745C",
"2. c #A16F4D",
"3. c #A4734D",
"4. c #AA7952",
"5. c #B27955",
"6. c #955365",
"7. c #925467",
"8. c #A75B6A",
"9. c #BB5B63",
"0. c #8D7464",
"q. c #957965",
"w. c #887778",
"e. c #927877",
"r. c #AD6E6F",
"t. c #B86A7E",
"y. c #C24E4F",
"u. c #C7545A",
"i. c #C4595D",
"p. c #C45C62",
"a. c #CA5D63",
"s. c #D05C6A",
"d. c #CA6168",
"f. c #CC626A",
"g. c #D3646A",
"h. c #CC6975",
"j. c #D46C78",
"k. c #CE7179",
"l. c #3E805E",
"z. c #4D8569",
"x. c #489769",
"c. c #4F906E",
"v. c #4A9C6C",
"b. c #588C72",
"n. c #599576",
"m. c #5D9B7A",
"M. c #688673",
"N. c #619B7C",
"B. c #4EA070",
"V. c #53A374",
"C. c #5BA67C",
"Z. c #5AA87C",
"A. c #62A27F",
"S. c #B98458",
"D. c #8A8579",
"F. c #958B78",
"G. c #A3826B",
"H. c #AB856B",
"J. c #A58975",
"K. c #B78D73",
"L. c #B18E74",
"P. c #C4895A",
"I. c #C8905E",
"U. c #D0966F",
"Y. c #E4A07B",
"T. c #E1A57D",
"R. c #717A89",
"E. c #947881",
"W. c #B67384",
"Q. c #C8758B",
"!. c #DA7687",
"~. c #D27A90",
"^. c #E17A8D",
"/. c #E47C92",
"(. c #F17B9A",
"). c #748E89",
"_. c #5FAC81",
"`. c #63A682",
"'. c #61AD83",
"]. c #69AB86",
"[. c #6BAA88",
"{. c #65B186",
"}. c #66B388",
"|. c #6AB58B",
" X c #988787",
".X c #8B8E92",
"XX c #AC9983",
"oX c #B7988C",
"OX c #A9959A",
"+X c #AFA594",
"@X c #B2A695",
"#X c #BAA896",
"$X c #B59EA6",
"%X c #9CA8B6",
"&X c #AAAFB8",
"*X c #D08E91",
"=X c #E68196",
"-X c #E6859C",
";X c #EB859D",
":X c #D5AA8A",
">X c #CAAD92",
",X c #E0AF8B",
"<X c #E9BA94",
"1X c #D997A2",
"2X c #E98AA2",
"3X c #F28CA5",
"4X c #F48DA6",
"5X c #F692AC",
"6X c #F699AF",
"7X c #D1B0AF",
"8X c #E9AEB9",
"9X c #EDC29E",
"0X c #F7C79E",
"qX c #DECDB5",
"wX c #E5CBAD",
"eX c #F3C6A1",
"rX c #F5C9A4",
"tX c #FCCBA3",
"yX c #FFD2A8",
"uX c #ECD3B4",
"iX c #F4D6B5",
"pX c #F9D7B4",
"aX c #F6DABA",
"sX c #F9DCBB",
"dX c #FEE2BF",
"fX c #ABB5CB",
"gX c #D6BAC2",
"hX c #E9BDC6",
"jX c #BAC2D3",
"kX c #D9C8CF",
"lX c #F7DBC2",
"zX c #F7C9D4",
"xX c #EDD1D7",
"cX c #FDE4C3",
"vX c #FFF3DC",
"bX c #C7D3EC",
"nX c #FADDE5",
"mX c #D7E4FF",
"MX c #FEE6E8",
"NX c #F5F1F0",
"BX c #F2F4F6",
"VX c #FDFEFF",
/* pixels */
"'.'.'.'.'.'.'.'.'.'.'.'.'.'.'.'.'.'._.'.'._.'.'.'.'.'.'.'._.'.'.'.'.{.'.'.'.'.Z.'.'.'.'.'.'.'.'.'.'.{.'.'.'.'.'.'.'.'.'.",
"'.'.'.'.'.'.'.'.'.'._.'.'.'.'.'.'.'.|.|.}.}.}.'.'.'.'.'.'.'.'.'.'.'.Z.{.'.}.}.|.'.'.'.'.'.'.'.'.'.'.Z.{.'.'.'.'.'._.'.'.",
"'.'.'.'.'.'.'.'.'.'.'.'.'.'.'.'._._.! H J R ! `._.'.'.'._._.'._.'.'.}.Z.'.! R H C.'.'.'.'.'.Z.{.'.'.'.'.'.'.'.'._.{.'.'.",
"'.'.'.'.'.'.'.'.'.'.'.'.'.'.'.'.`.[.B 6 u > 7 [.}._.'.`.[.[.}.}.{.Z.{.}.].4 : # N.|.'.'.'.'.{.{.'.'.'.'.'.'.'.'.'.'.'.'.",
"'.'.'.'.'.'.'.'.'.'.'.'.'.'._.{.! P xXxXxXOX  < J }._.{.! j j ! }.Z.|.l.l Y 2.S.U A {.{.A.{.{.Z.{.Z.'.'.'.'.'.'.'.'.'.'.",
"'.'.'.'.'.'.'.'.'.'.'.'.'.'._.}.R 0 hXzXzX$Xw.E..X`.`.`.~ s c W A.A.].P 0  .:.S.b u A.Z.{.Z.{.Z.'.{.'.'.'.'.'.'.'.'.'.'.",
"'.'.'.'.'.'.'.'.'.'.'.'.'.'._.{.! 0 (.3X(.hXnXnXkX    1 3.I.I.3.& 2 3 t c  .| m +.+.: R }.{.Z.{.'.'.'.'.'.'.'.'.'.'.'.'.",
"'.'._.'.'.'.'.'.'.'.'.'.'.'._.{.! > 2X2X~.1X8X8X8X7X X. ;.3.2.:.c a u n n c @.3.:.m : ! Z.Z.Z.Z.Z.{.'.'.'.'.'.'.'.'.'.'.",
"'._.'.'._._._._.{._._.[.'.'._.{.! > ;X=Xu.u.y./.2XMX7X  I | m m @.n t @. .w :.I.:.O.> E V.x.v.x.Z.'.'.'.'.'.'.'.'.'.'.'.",
"{._.'.'.[._.{._._.{._._.'.'.'.}.! 0 3X=Xi.^.;Xj.Q.6XW.  2.S.S.3.e 1.L.b c O.m n c g @ ! Z.v.B.v.Z.'.'.'.'.'._.'.'.'.'.'.",
"'.'.'.'._.{.`._._._._._._._.`.`.R 0 =X~.*.!.3Xg.g.3XW.> 2.5.S.2.r q.oXI f  .m a a p S z.V.c.B.x.V.{.'.'.'.'.'.'.'.'.'.'.",
"'.'.'.'._.{._._.}.}.}.}.}.D N N 5 ;   9 [ *.i.;X3X3X^.s.C = i c  .q.L.I t t c  .t M _.m.3 1 M C.Z.'.'.'.'.'.'.'.'.'.'.'.",
"'.'.'.'.'.'._._.b.n.n.n.b.N * ; 5 N OXE.q -.k.;X;X^.j.*.V = v m } q.>XY v c >.4.v 8 l.E t b ;.b.m.{._._.'.'.'.'.'.'._.'.",
"'.'.'.'.{._.|.`.. .       O = N   & nXkX  Q.6X5X;Xg.*.] d 2 @.O.# F.oX;.} z 1.oX>.e & t  .5.I.9 A |.{.'.'.'.'.'.'.'._.{.",
"'.'.'.'._.'.J W %.*XgXgX7X~.8.  $XgX6X1X%.6.7.6.6.C h d e u f Y F.>XuX+XJ.XXJ.,.b a i x @.@.:.3.1.R n.}._.'.'.'.'.'.'.'.",
"'.'.'.'.{.'.1 C u.8XnXnXzX5XW.  gXnX2X^.g.#.. < < k k D x I x 0.#XwXdX>X#X#XJ.z c f f c @.O.O.5.S.  z.}.'.'.'.'.'.'.'.'.",
"'.'.'.'._.].1 h u.8XnX*Xd.f.*.` V P s.s.f.X.%  X#XuXuXuXuXuXuXuXiXiXaX>XJ.;.n a m  .8 u f p y f x & z.}.'.'.'.'.'.'.'.'.",
"'.'.'.'._._.z./ ..1XzXk.i.j.p.%.#.#.=.=.-.,.W #XwXdXsXdXdXsXsXsXsXsXaX7X#X1.Y c m m p i a u y p p * z.}._.'.'.'.'.'.'.'.",
"'.'.'.'._.'.|.N.  W.4Xs.f.5X^.y.(.2XN &   w.#XuXiXaXaXaXaXaXsXaXsXsXsXsXuX@XJ.} f i @.O.6 p c u 6   z.}.'.'.'.'.'.'.'.{.",
"Z._.Z.C.'.'.'.N.o 8.^.!.!.!.^.!.!.!.6 L e.#XwXiXiXaXaXaXsXsXsXsXsXsXsXsXaXwX>XF.;.c I g 5 8 u > P m._.'.'.'.'.'._.Z.Z.Z.",
"x.x.v.v._.'.'.m.% =.a.;X2X*.!.4Xj.-.> W #XqXsXsXaXaXsXsXsXaXsXsXsXaXaXsXpXcXwX#Xq. .B 5 ; 3 3 & R |._.{.'.'.'.'.V.x.v.v.",
"B.v.v.B._.'.'.'.].~ q d.j.2X;X4Xj.p.* <.eX<XtXsXsXdXsXsXaXsXsXaXaXsXsXsXsXrX<X0X<.: a i * b.'._.Z.{._._.'.'.'.'.Z.v.B.v.",
"v.x.v.v._.'.'.'.'.c.Z =.9.-X-X;Xj.-.: <.<X<X,XwXuXwXuXsXpXaXaXsXsXiXwXuXwX,X<X<X>.& f a 5 m.'.'._.{.{._.'.'.'.'.V.v.v.x.",
"V.V.V.V.'.'.'.'.'.'.].R # = #.g.&.] o g U.O.o O %   XXdXsXsXaXaXcXXX  % O .  .U.g o f i   n.}._._.'.'.'.'.'.'.{.Z.V.V.V.",
"'.{.{.'.'.'.'.'._._.{.c.! 1 C =.' ' q.K.,XK.q.G.G.q.>XiXiXaXaXpXyX>X1.G.G.q.K.T.L.q.t U G.D.c.'.'.'._.'.'.'.'.'.'.{.{.'.",
"_._.'.'.'.'.'.'.{.'.'.{.].D & o & N 0XtX0XtXyXtXtXtX0X<XiXsXsXpX<X9XtXtXtXyXtXeX0X0X; <.yXH.O ]._.'.{._.'.'.'.'.'.'.'.'.",
"'.'.'.'.'.'.'.'.'.'.'._.].1 0.:X>.w <.H.Y.H.<.0.q.<.:X0XrXrXrXeX0X>X<.G.q.<.H.Y.H.<.w 1.tXH.1 {.{.{._.'.'._.'.'.'.'.'.'.",
"'.'.'.'.'.'._.'.'.'.'.'.].< H.yX1.w O f U.;.M < < O G.9X<X<X9X<X0XG.O 1 < M >.I.x O w 1.tXG.1 ]._._.'.'.'.'.'.'.'.'.'.'.",
"'.'.'.'.'.'.'.'.'.'.'.'.].O G.yXq.w 6 8 X %XmX^ X   4 8 :X0X0X:X4 4   X ^ bX%XX 8 8 w 1.yXH.O ].'.'.'.'.'.'.'.'.'.'.'.'.",
"{.'.'.'.'.'.'.'.'.'.'._.'.z.F.,X,.e , L <.jXmX^ 8 .XD.W >X:X,XK.W D..X8 ^ BXjXD.L , e >.>XF.z.'.'.'.'.'.'.'.'.'.'.'.'.'.",
"_._.'.'.'.'.'.'.'.'.'.'.'.}.b.  e x   F.cXvXVX/ / VXvXtXq.  . D.0XvXVX/ ^ VXvXcXD.  c e   n.|._.'.'.'.'._.{.'.'.'.'.'.'.",
"'.'.'.'.'.'.'.'.'.'.'.'.'.'.`.n.E w w T oX7XlXW P &X@XH.U 3 2 U K.$X&XP T lX7XXXT w w E m.'._.'.'.'.'.'._.'.'.'.'.'.'.'.",
"'.'.'.'.'.'.'.'.'.'.'.'.'._.{.|.! & g e   5.Y.I %     O ; 7 7 ; o     % b Y.5.  r v % ! |.'.'.'.'.'.'.'.'.'.'.'.'.'.'.'.",
"'.'.'.'.'.'.'.'.'.'.'._._.}.`.G S , m ;.5.,.U 4.4.+.I f 6 ; 3 4 a I Y 4.4.U ,.5.;.m , S H m.}.'.'.'.'.'.'.'.'.'.'.'.'.'.",
"'.'.'.'.'.'.'.'.'.'.'.{.`._.M.U N 8 | :.P.Y % 4.5.| n a y 5 5 4 a b  .S.4.% Y P.:.O.6 N T M.C.'.'.'.'.'.'.'.'.'.'.'.'.'.",
"'.'.'.'._.'.'.'.'.'.'._.[.= OXNXw.  @.+.@.x 6 O. .f i 6 6 6 6 6 6 i f | Y 6 c  .@.@.  w.MXOX$ [.'.'.'.'.'.'.'.'.'.'.'.'.",
"'.'.'.'.'.'.'.'.'.'._._.[.< E.7XOX XY I  .c y b b i i u g x x x u i i v I y c @.b I  XOXgXE.< '.'.'.'.'.'.'.'.'.'.'.'.'.",
"'.'.'.'.'.'.'.'.'._.{.{.`.D   . kXMX1 # :.b f 6 6 6 u a n @. .m a u 6 6 6 a n @.# 1 MXkX.   D '.'.'.'.'.'.'.'.'.'.'.'.'.",
"'._.'.'.{._._._._.'.'._.|.$  XqXOXe.Q.t.w a f i i t c m 2.5.4.2.n c i a a f a u W.Q.E.OXkXF.< ].'.'.'.'.'.'.'.'.'.'.'.'.",
"_.{.'.'._._._._.'.'.'.{.{.  @XNXD.  3X~.+ u f x L g n +.5.S.S.5. .b a f f g u o ~.5X  F.vX@X  ].'.'.'.'.'.'.'.'.'.'.'.'.",
"'.'.'.'.v.v.v.v._.{.'.'.V.  @XvXaXwXB > 5 5 ,       X . 3.P.S.S. .b a f i O = 5 : B wXlXvX+X. [.'.'.'.'.'.'.'.'.'.'.'.'.",
"'.'.'._.B.v.v.B._._.'.`.N.  +XvXcXiXq.T - 5 5 )..XR.R.Q 1.3.4.:.I v a a g 7.U & T q.iXcXvX+X  `.`._.'.'.'.'.'.'.'.'.'.'.",
"'.'.'.'.v.v.v.v.'.'.|.G     @XvXlXiXtX:X& o X NXVXmXbX%X~   & % . o O   V 5XQ.  :XrXaXsXvX@X    G }._.'.'.'.'.'.'.'.'.'.",
"'.'.'._.V.B.B.B.Z.C.b.W.t.  @XvXlXiXeX:X  .XfXBXBXjXfX%X~ : $.8.W.t.W.t.t.!.8.  :X0XaXsXvX+X  t.W.b.A.'.'.'.'.'.'.'.'.'.",
"'.'.'.'._._.{.'.V.J X 2X2X  +XvXlXpXtX:X  fXmXBXBX%X%X&X~ > u.j.5X4X4X5X2Xa.&.O :XtXiXaXvX@X  2X2XX z.}._.'.'.'.'.'.{.'.",
"'.'.'.'.{._._._.V.J * %.$.  @XvXlXpXeX:X( fXmXmXbXQ Q K $.-.zX8Xu.g.h.*.%.%.' % :XeXsXsXcXXX  =.%.+ z.}.'.'.'.'.'.'.'.'.",
"'.'.'.'._.{._._.V.J & o.%.  +XvXaXuXeX,X( &XbXbXfXy 0 # 9.*XxXkXh.f.p.&.%.[ ' & :X<XuXuXdXXX  %.%.O z.}._.'.'.'.'._.'.'.",
"'.'.'.'._.{._._.Z.l.# -X2X  XXcXY.5.tX:X+ = . = y ] ] ( hXnX) r.MX$X( (.2Xa.$.  :XtXP.T.cXXX  2X-XX z.}.'.'.'.'.'.'.'.'.",
"'.'.'.'.'.'.'._.m.! > ~.~.o L.aX,XU.:Xq.% T 8.#.o.&.9.a.1XhX*X1XzX*X{ ~.^.!.h.6.oXU.:X,XpXL.  !.~.X z.|._.'.'.'.'.'.'.'.",
"'._.'.'.'._.|.m.      { {   G.tXtXrX& O   Q.5Xj.i.i.!.5Xs.y.nXxX(.!.i.i.a.4X4X5XV   <XtXtXJ.o -.-.+ z.}._._.'.'.'.'.'.'.",
"'.'.'.'.'.'.J ).fXbXkXxXxXjX%X1.q.0.=.=.&.6.6.!././.!.j.^.-X8X3Xj.!././.^.j.^.4Xh.=.q.0.q.#._ p.p.  z.}._.'.'.'.'.'.'.'.",
"'.'.'.'.'.[.  R.mXBXVXVXVXmX%X. & & s.f.s.#.. /.3X4X^.*.=X3X(./.y.^.4X3X-X-.!.4Xj.i.: O % h [ p.9.N n.{._.'.'.'.'.'.'.'.",
"'.'.'.'.'.[.= Q &XbXmX).B K 6.f.V = a.9.[ h ; ~.4X3X/.i.=X3X4X-Xp.!.3X2X-Xu.^.4Xj.i...%.f.*.` q Q [.'.'.'._.'.'.'.'.'.'.",
"'.'.'.'.'.'.! / .XfXjXR.H = C 9.#.C 9.*.' h r ~./.-X!.*.!.=X/.!.*.!.=X=X^.-.j.-Xh.p.] o.9.o.' E c.}._.'.'.{.'.'.'.'.'.'.",
"'.'.'.'.'.'.|._.    : [.].8 * - =.g.[ ' - _ [ p.p.a.*.` -.a.a.-.` *.a.a.i.` &.s.d.f..._ o o 7 ].{.'.'.'.'.'.'.'.'.'.'.'.",
"'.'.'.'.'.'._.`.N.n.n.'.'.m.~ & o.&.h d - h [ p.a.a.-.` p.f.a.i.` -.d.a.i.[ X.o.$.$.q T m.n.m.'.Z.'.'.'.'.'.'.'.'.'.'.'.",
"'.'.'.'.'.'.'.'.{.{.{._.'.|.m.= ' [ 2 < < h ..p.d.d.-.` i.a.f.-.` u.s.f.i...h < < < O ! }.{.{.'.'.'.'.'.'.'.'.'.'.'.{.'.",
"'.'.'.'.'.'.'.'._._.'.'.'._.'.'.E 0 `.`.Z.M.9 d d d 0 0 d d d d 0 0 d d d 9 M.Z.A.A.A.'.'._._.'.'.'.'.'.'.'.'.'.'.'.'.'.",
"'.'.'.'.'.'.'.'.'.'.'.'.'.'._.{.z.F '.'.{.b.Z F A F F F F A A F F F A A F Z c.}._.{._.{.'.'.'.'.'.'.'.'.'.'.'.'.'.'.'.'.",
"'.'.'._.'.'.'.'.'.'.'.'._._.{.'.].{.'.'.'.{.].|.{.].{.].].{.{.{.].{.].].].|.'.'._._.'._.'.'.'.'.'.'.'.'.'.'.'.'.'.'.'.'."
};
