/* XPM */
static char *result[] = {
/* columns rows colors chars-per-pixel */
"60 60 155 2 ",
"   c #03134E",
".  c #09174E",
"X  c #0D1C51",
"o  c #2C014F",
"O  c #2A084D",
"+  c #221E44",
"@  c #2F1553",
"#  c #2D1A50",
"$  c #1D2352",
"%  c #2D2F4E",
"&  c #202552",
"*  c #2E2452",
"=  c #252D57",
"-  c #2F2C51",
";  c #262E58",
":  c #332357",
">  c #352459",
",  c #2F3253",
"<  c #2B3258",
"1  c #313455",
"2  c #323955",
"3  c #3B305F",
"4  c #373B5A",
"5  c #383B5B",
"6  c #3A0960",
"7  c #3B1460",
"8  c #3E1862",
"9  c #3D2162",
"0  c #3E2963",
"q  c #3F3563",
"w  c #3F3963",
"e  c #412B65",
"r  c #413265",
"t  c #413B65",
"y  c #354457",
"u  c #354E57",
"i  c #38405B",
"p  c #3A545C",
"a  c #385B5A",
"s  c #3B695D",
"d  c #3E4463",
"f  c #414564",
"g  c #424A66",
"h  c #454569",
"j  c #48436D",
"k  c #464D6A",
"l  c #484E6C",
"z  c #425066",
"x  c #435C67",
"c  c #465169",
"v  c #4A526C",
"b  c #465B6A",
"n  c #4E5873",
"m  c #406261",
"M  c #446867",
"N  c #47646B",
"B  c #49626C",
"V  c #4A6A6D",
"C  c #467267",
"Z  c #4C706F",
"A  c #457C68",
"S  c #4D6D70",
"D  c #4E7570",
"F  c #4F7971",
"G  c #507C73",
"H  c #47846A",
"J  c #4A826C",
"K  c #48896B",
"L  c #4C906F",
"P  c #479A69",
"I  c #4B9D6D",
"U  c #4E8C70",
"Y  c #528274",
"T  c #548C76",
"R  c #568C79",
"E  c #4E9F70",
"W  c #529374",
"Q  c #579279",
"!  c #58957A",
"~  c #59997C",
"^  c #4CA16D",
"/  c #4FA171",
"(  c #53A375",
")  c #56A778",
"_  c #58A67A",
"`  c #5CA97E",
"'  c #5A6482",
"]  c #626C8A",
"[  c #777B8C",
"{  c #6A7797",
"}  c #6C7897",
"|  c #6D7A99",
" . c #698293",
".. c #6E839A",
"X. c #7C8190",
"o. c #71849D",
"O. c #5EAA80",
"+. c #61AD83",
"@. c #63B285",
"#. c #65B887",
"$. c #66B888",
"%. c #7583A3",
"&. c #7884A5",
"*. c #778CA5",
"=. c #7D8DAE",
"-. c #878D9A",
";. c #8E93A0",
":. c #9095A1",
">. c #959BA8",
",. c #818FB2",
"<. c #8596B9",
"1. c #8897BA",
"2. c #8A9ABC",
"3. c #9CA2AE",
"4. c #9FA5B0",
"5. c #879AC0",
"6. c #8D9EC2",
"7. c #8FA1C3",
"8. c #8EA2C9",
"9. c #93A4C4",
"0. c #94A6CA",
"q. c #96A8CB",
"w. c #9EAECD",
"e. c #96ABD3",
"r. c #9BAED4",
"t. c #99AFD8",
"y. c #9DB0D5",
"u. c #9FB3D8",
"i. c #ABB4C4",
"p. c #B8BFC8",
"a. c #A3B4D6",
"s. c #A1B5DA",
"d. c #A5B8DD",
"f. c #ACBBD9",
"g. c #A5BAE0",
"h. c #BCC1C9",
"j. c #B5C1D6",
"k. c #BDC6D7",
"l. c #B4C2DB",
"z. c #BBC6DA",
"x. c #BFCADD",
"c. c #C4CBD3",
"v. c #C1CCDF",
"b. c #CDD3DB",
"n. c #D0D7DD",
"m. c #C3CEE1",
"M. c #C7D1E0",
"N. c #CBD5E3",
"B. c #D6DDE5",
"V. c #D8DFE7",
"C. c #D9E0E7",
"Z. c #DDE3EA",
"A. c #E0E6EC",
"S. c #E1E8EE",
"D. c #E2EAF0",
/* pixels */
"+.+.+.+.+.+.+.+.+.+.+.+.+.+.+.+.+.+.+.+.+.+.O.+.+.+.+.+.+.+.+.+.+.+.+.+.+.+.+.+.+.+.+.+.+.+.+.+.+.+.+.+.+.+.+.+.+.+.+.+.",
"+.+.+.+.+.+.+.+.+.+.+.+.+.+.+.+.+.+.+.+.+.+.@.+.+.+.+.+.+.+.O.+.+.+.+.+.+.+.+.+.+.+.+.+.+.+.+.+.@.+.+.+.+.+.+.+.+.+.+.+.",
"+.+.+.+.+.+.+.+.+.+.+.+.+.+.+.+.+.+.+.+.+.+.+.+.+.+.+.+.+.@.+.+.+.+.+.+.+.+.+.+.+.+.+.+.O.O.O.` O.+.+.+.O.O.O.O.O.+.+.+.",
"+.+.+.+.+.+.+.+.+.+.+.+.+.+.+.+.+.+.+.+.+.+.+.+.+.+.+.+.+.+.+.+.+.+.+.+.+.+.+.+.+.+.+.+.O.I I I E +.+.+.O.P I P ( +.+.+.",
"+.+.+.+.+.+.+.+.+.+.+.+.+.+.+.O.+.+.+.+.+.+.+.+.+.+.+.+.+.+.+.+.+.+.O.+.+.+.+.+.+.+.O.O.+.E I I / +.+.+.` I E P ( +.+.+.",
"+.+.+.+.+.+.+.+.+.+.@.@.@.@.@.@.@.+.+.+.+.+.+.+.+.+.+.+.+.+.+.+.+.+.+.+.+.+.+.+.+.@.@.@.@./ ^ I / +.+.+.O.P I P ( +.+.+.",
"+.+.` ` ` ` +.+.+.+.! ! ! ! ! ! Q ~ @.+.+.+.+.+.+.+.O.+.+.+.+.+.+.+.+.+.+.+.+.+.+.~ ! ! ! K K K K ` ` ` ` ( ( ( ` +.+.+.",
"+.@./ P P P O.+.+.O.f q q q q w 8 B @.O.+.+.+.+.+.+.+.+.+.+.+.+.+.+.+.+.+.+.+.+.+.c 0 w q w w t z ^ P P E +.@.+.+.+.+.+.",
"+.+.( I I E O.+.+.O.b k c c k v j S @.O.O.+.+.+.+.+.+.+.+.+.+.+.+.+.+.+.+.+.+.+.O.B g v k k k k b ^ I I E +.+.+.+.+.+.+.",
"+.+./ P I I +.@.@.@.y - 1 1 , 2 # m $.@.@.@.+.+.+.+.+.+.+.+.+.+.+.+.+.+.+.@.@.@.@.p * , , 1 1 - u ^ ^ ^ ( @.+.+.+.+.+.+.",
"+.+._ ( ( ( T R T R %.%.%.%.%.%.%...T T R Q @.+.+.+.+.+.+.+.+.+.+.+.+.+.+.! R T Q %.%.%.%.%.%.%...J J A U +.+.+.+.+.+.+.",
"+.+.+.+.+.@.c 0 0 j u.d.s.s.s.s.g.0.> t 7 S @.+.+.+.+.+.+.+.+.+.+.+.+.+.@.b 9 q q e.g.u.d.d.u.d.r.q t 0 B +.+.+.+.+.+.+.",
"+.+.+.+.+.O.B k z n r.y.r.r.y.r.u.7.d b f D @.+.+.+.+.+.+.+.+.+.+.+.O.+.@.S h b z 0.u.r.r.r.r.a.0.k c h S @.+.+.+.+.+.+.",
"+.+.@.@.@.@.p * , i q.r.e.e.e.q.t.5.+ 4 O C $.@.@.+.+.+.+.+.+.+.+.+.@.@.$.m @ 1 , 7.e.e.e.e.e.r.8.% , # m $.@.@.@.+.+.+.",
"+.@.R G Y Y *.,.=.,.x.v.v.v.v.v.m.f.=.=.=.*.Y G F O.@.+.+.+.+.+.+.! Y Y G *.=.=.=.z.M.v.v.v.m.m.z.=.=.,.*.F Y G Q +.+.+.",
"+.@.B 9 t 0 r.d.u.d.C.Z.Z.Z.Z.Z.A.B.u.s.g.2.o t 6 D @.O.+.+.@.O.@.D 7 t # 9.g.u.d.C.Z.Z.Z.Z.Z.A.B.d.s.g.0.# f 7 D +.+.+.",
"+.+.S f k g 0.a.r.a.B.V.V.V.V.V.Z.N.r.w.u.1.2 c w Y @.+.+.+.+.O.@.F t z i 9.s.r.r.B.B.V.V.V.V.C.B.u.r.u.3.i z t G @.+.+.",
"+.@.V w g d 0.t.e.r.B.Z.V.V.V.V.Z.N.e.e.u.<.2 k t Y @.+.+.+.+.+.@.F w z 5 5.u.e.e.B.C.V.C.C.V.C.N.e.e.u.5.5 k w Z @.` +.",
"+.@.V d g d k.N.v.M.V.V.Z.V.V.Z.V.B.M.m.N.i.& c q Y @.+.+.+.+.+.@.Z w k < h.N.M.M.V.C.C.V.C.V.V.V.M.M.N.j.< c w F @.+.+.",
"+.+.V w k d n.A.Z.Z.V.Z.V.V.V.V.V.V.Z.Z.A.h.. l q G @.+.+.+.+.O.@.Z w v = c.D.C.C.C.C.C.C.C.C.V.C.Z.C.D.c.; c w Z @.+.` ",
"+.+.S w g d b.C.V.B.V.V.V.V.V.V.V.V.V.B.A.p.X v q Y @.+.+.+.+.+.@.D w c ; c.Z.V.C.V.V.V.V.V.V.V.V.V.V.Z.c.= c w F @.+.+.",
"+.$.V t k d b.Z.B.Z.Z.Z.Z.V.V.Z.Z.Z.V.V.A.p.X v q Y #.@.+.@.+.+.@.F q c ; c.A.V.C.C.Z.C.Z.Z.Z.V.Z.V.C.Z.c.= c r F @.@.@.",
"V V c f f d b.Z.V.V.f.f.f.f.f.f.f.z.V.B.Z.p.X l f c V V V V V V S c f k ; c.Z.V.C.l.f.f.f.f.f.f.l.C.V.Z.c.= k f c V V V ",
"t t f g k d b.Z.V.B.r.w.r.r.r.r.e.a.Z.V.A.p.X l g f t t t t t t t f f k ; c.Z.V.C.s.e.r.r.r.r.e.s.C.C.Z.c.= k g g t t t ",
"g g g f g d b.Z.V.B.a.r.y.y.a.y.r.f.V.V.S.p.X l g g g g g g g g f g f k ; c.A.V.V.f.r.a.r.a.y.r.f.V.V.Z.c.; k k g g g g ",
"f g g k g d b.Z.V.B.a.r.y.y.y.y.r.f.A.V.S.p.X l g f f f f f f f f f g k ; c.A.V.V.s.r.r.r.y.y.r.a.V.V.Z.c.; k f f f f f ",
"b.n.[ < k f r.f.a.f.y.y.y.y.y.y.r.y.a.a.f.2., l $ >.B.b.b.b.b.b.B.-.; l 4 q.f.a.s.y.r.a.u.r.y.y.a.s.a.f.q.4 l = -.B.b.b.",
"C.S.X.< l d 0.r.r.r.y.y.y.y.y.y.y.r.r.r.s.1.1 v   4.A.V.Z.Z.Z.C.D.:.$ v 4 6.r.r.r.y.y.y.y.y.y.y.r.r.r.a.6.5 l $ :.D.C.Z.",
"C.Z.X.< l f q.s.y.y.y.y.y.y.y.y.y.y.y.y.d.<.1 v . 3.Z.B.C.C.C.B.A.;.$ v 4 6.a.r.y.y.y.y.y.y.y.y.y.y.r.u.7.4 v & ;.A.V.C.",
"B.Z.[ < l f 0.u.r.y.y.y.y.y.y.y.y.y.y.r.s.1.1 v . 3.Z.B.B.B.B.B.Z.;.& v 4 9.s.r.y.y.y.y.y.y.y.y.y.r.r.s.7.4 l & :.Z.B.B.",
"u.s.] 4 k d 0.u.r.y.y.y.y.y.y.y.y.y.y.r.s.<.1 k , &.d.u.a.u.a.a.d.} 4 k 4 9.s.r.y.y.y.y.y.r.y.y.y.y.r.s.7.4 l 2 } s.r.a.",
"r.s.] 5 k f q.u.r.y.y.y.y.y.y.y.y.y.y.r.s.2.1 v 1 %.u.r.r.r.r.w.s.{ 1 l 4 6.s.r.y.y.y.y.y.y.y.y.y.y.r.s.7.4 l 4 { s.r.r.",
"r.s.] 4 k d 0.u.r.r.r.a.r.r.r.u.y.y.r.r.a.1.1 l 1 &.g.r.r.u.r.r.s.} 2 l 4 9.u.r.r.r.r.a.r.u.r.u.y.y.r.s.7.5 k 4 { s.r.r.",
"y.s.] 5 k f 0.s.r.u.r.u.r.u.r.r.y.y.u.r.s.1.1 l 1 | g.r.r.u.y.r.s.} 2 l 4 6.s.r.r.u.r.u.r.r.r.r.y.y.r.s.7.4 k 1 { s.r.r.",
"r.u.] 4 k d q.u.r.u.r.r.u.r.a.r.y.y.y.y.s.1.1 l 1 &.s.r.u.r.r.r.s.} 2 l 4 9.s.r.u.u.r.r.u.r.a.r.y.y.r.s.7.4 l 4 } s.r.u.",
"r.u.] 5 k d q.u.r.r.u.r.r.r.u.r.y.y.y.r.s.1.1 l 1 | s.r.r.r.r.r.s.} 1 l 4 6.s.r.r.r.r.u.r.u.r.r.r.r.r.s.7.5 k 4 } s.r.r.",
"a.s.] 5 k f 0.u.r.r.r.r.r.r.u.r.y.y.y.r.s.1.1 l 1 &.g.u.u.s.u.u.g.| 1 l 4 7.s.r.r.u.r.r.r.r.r.u.y.y.r.s.7.4 l 2 } g.u.s.",
"7.9.' 5 k g q.u.r.r.a.r.a.r.u.r.y.y.y.r.s.1.1 l 4 | 0.6.7.6.9.7.0.] 4 k 4 7.s.r.r.r.u.r.a.r.u.r.y.y.r.s.7.4 k 4 ] 0.6.9.",
"4 4 f f f d q.u.r.s.r.s.r.u.r.r.y.y.r.r.s.1.1 g h d 4 4 4 4 4 5 5 f g k 4 7.s.r.a.r.r.a.u.r.r.r.y.y.r.s.7.4 k g f 4 4 5 ",
"k k g g g f q.u.r.r.r.u.r.r.r.a.y.y.y.r.s.1.1 k g g k k k k k k h k f k 4 7.s.r.r.r.r.u.r.r.r.a.y.r.r.s.7.4 g g h k k k ",
"w w f g g g q.u.r.u.r.u.r.r.r.u.y.y.y.r.s.1.1 g g d q w w w w w r f g k 4 7.s.r.u.r.s.r.r.r.r.r.y.y.r.u.7.5 g g f q w q ",
"Z F c f g d 0.u.r.r.r.u.r.a.r.r.y.y.y.r.s.1.2 k f B F D D D D D F x f k 4 7.s.r.r.u.r.r.r.a.r.u.y.y.r.s.9.4 g f b F D D ",
"@.#.V t g d q.u.r.r.r.r.r.r.u.r.y.y.u.r.s.1.1 k 0 Y $.@.@.@.@.@.#.F r z 4 7.s.r.r.r.r.u.r.r.u.r.y.y.r.u.7.4 k q D $.@.@.",
"O.@.V w g g q.u.r.u.a.r.a.r.s.r.y.y.r.r.s.1.1 k q Y @.O.+.O.O.+.@.Z r l 4 7.s.r.a.r.u.r.a.r.s.r.y.y.y.s.7.4 k w D @.+.O.",
"+.@.V t g d q.u.r.r.r.r.r.r.r.s.r.u.r.r.s.1., c q Y @.+.+.+.+.+.@.F t k 4 7.s.r.y.y.y.y.r.u.r.u.r.r.r.s.7.4 k w D @.O.+.",
"+.@.V w g g q.u.r.r.a.u.r.u.r.r.r.u.y.r.d.1.1 k q Y @.+.+.+.+.O.@.Z t z 4 7.s.r.r.y.y.y.r.r.r.r.u.r.r.s.7.4 k w D @.+.+.",
"+.@.V w g f 0.s.r.s.r.r.r.r.r.a.r.r.u.r.u.1.1 k q Y @.O.+.+.+.+.@.D 3 c 4 9.a.r.y.y.y.y.y.r.s.r.u.r.r.u.7.4 c q D @.O.+.",
"+.@.V f k f 0.r.r.r.r.r.r.r.r.r.r.r.r.r.u.<.2 v w Y @.+.+.+.+.O.@.F t z 5 7.y.r.r.r.r.r.r.r.r.r.r.r.r.u.7.i c w F @.+.+.",
"+.@.V e t t e.d.s.s.s.s.s.d.s.s.s.s.s.s.g.6.@ h 8 Y @.O.+.+.+.+.@.Z 9 h > 9.d.d.s.s.d.s.d.u.s.s.s.s.u.g.0.> f 9 D @.O.+.",
"+.+.K A J A o.&.%.%.%.%.%.%.%.%.%.%.%.%.%. .A J A W @.O.+.+.+.+.@.W A J A ..%.%.%.%.%.%.%.%.%.%.%.%.%.&...A J A T @.+.+.",
"+.+.( ^ ^ ^ u : 2 1 1 1 , 1 , 2 1 1 1 2 # s ^ ^ I ) @.+.+.+.+.+.+.( ^ ^ / a # 2 1 1 , , , 1 , , 1 , 2 * a / E ^ ( @.+.+.",
"+.+.( P I I b g k v h h k c k k k k k k h C ^ I I ( +.+.+.+.+.+.+.( I I ^ N h v k v h k k k v k v k c h M I E P E @.+.+.",
"+.+.( P I P z r t t t t t t t t t t t t e M ^ I I ( @.O.+.+.+.+.@.E P I ^ x q t t t t t r t t t t t t 0 x ^ I P ( +.+.+.",
"+.+.` ` ` ` K K K K K K J K K K K K K K K K ^ I I ( +.+.+.+.+.+.+.` ` ` _ L H K K K J K K K K K K K K K K ^ E P ( @.+.+.",
"+.+.@.+.+.+.( ^ ^ ^ / I I ^ / ^ I ^ I ^ ^ ^ I I I ( @.+.+.+.+.+.+.+.@.+.+.( ^ ^ E ^ ^ ^ I ^ ^ ^ E ^ I ^ ^ I E P ( +.+.+.",
"+.+.+.+.+.+.E P I I I I I I I I I I I I I E I I I ( +.O.+.+.+.+.+.+.+.+.+.E I I I I I I I I I I I I I I I I E P ~ +.+.+.",
"+.+.+.+.+.+.E I I I I I I I I ^ I I I I I I E I I ( @.+.+.+.+.+.+.+.+.+.+.E I I I I I I E I I I I I I I I I I I ( +.+.+.",
"+.+.+.+.+.+.` ` ` ` I I I I I I I I I E I I I I I ( +.+.+.+.+.+.+.+.+.+.+.+.O.` ` E I I I I I I I I I E I I I I ( +.+.+.",
"+.+.+.+.+.+.@.+.+.+.E I E I I I I I I I I I I E I ( @.O.+.+.+.+.+.+.+.+.+.+.@.+.+.E I I I I I I I I I I I I I P E @.+.+.",
"+.+.+.+.+.+.+.` +.+.I I I I I I I I I I I I I I I ( @.+.+.+.+.+.+.+.+.+.+.+.+.+.+.E I I I I I I I I I I I I E I _ @.+.+."
};
